<svg width="30px" height="30px" viewBox="0 0 30 30" version="1.1" xmlns="http://www.w3.org/2000/svg" xmlns:xlink="http://www.w3.org/1999/xlink">
    <!-- Generator: Sketch 3.6.1 (26313) - http://www.bohemiancoding.com/sketch -->
    <title>Icons / button_add</title>
    <desc>Created with Sketch.</desc>
    <defs></defs>
    <g id="Styles" stroke="none" stroke-width="1" fill="none" fill-rule="evenodd">
        <g id="Icons" transform="translate(-70.000000, -20.000000)" fill="#F44236">
            <g id="Icons-/-button_add" transform="translate(70.000000, 20.000000)">
                <path d="M15,29 L15,29 C22.7319865,29 29,22.7319865 29,15 C29,7.2680135 22.7319865,1 15,1 C7.2680135,1 1,7.2680135 1,15 C1,22.7319865 7.2680135,29 15,29 L15,29 L15,29 Z M15,30 C6.71572875,30 0,23.2842712 0,15 C0,6.71572875 6.71572875,0 15,0 C23.2842712,0 30,6.71572875 30,15 C30,23.2842712 23.2842712,30 15,30 L15,30 Z M14,14 L8,14 L8,16 L14,16 L14,22 L16,22 L16,16 L22,16 L22,14 L16,14 L16,8 L14,8 L14,14 L14,14 Z" id="button_add"></path>
            </g>
        </g>
    </g>
</svg>
