<?xml version="1.0" encoding="UTF-8" standalone="no"?>
<svg width="30px" height="30px" viewBox="0 0 30 30" version="1.1" xmlns="http://www.w3.org/2000/svg" xmlns:xlink="http://www.w3.org/1999/xlink">
    <!-- Generator: Sketch 3.6.1 (26313) - http://www.bohemiancoding.com/sketch -->
    <title>Icons / button_edit</title>
    <desc>Created with Sketch.</desc>
    <defs></defs>
    <g id="Styles" stroke="none" stroke-width="1" fill="none" fill-rule="evenodd">
        <g id="Icons" transform="translate(-20.000000, -20.000000)" fill="#F44236">
            <g id="Icons-/-button_edit" transform="translate(20.000000, 20.000000)">
                <path d="M15,29 L15,29 C22.7319865,29 29,22.7319865 29,15 C29,7.2680135 22.7319865,1 15,1 C7.2680135,1 1,7.2680135 1,15 C1,22.7319865 7.2680135,29 15,29 L15,29 L15,29 Z M15,30 C6.71572875,30 0,23.2842712 0,15 C0,6.71572875 6.71572875,0 15,0 C23.2842712,0 30,6.71572875 30,15 C30,23.2842712 23.2842712,30 15,30 L15,30 Z M12.0442478,19.9734513 L9,21 L10.0265487,17.9557522 L15.8318584,12.1150442 L17.8849558,14.1681416 L12.0442478,19.9734513 L12.0442478,19.9734513 Z M19.0530973,12.9646018 L17.0353982,10.9469027 L18.5221239,9.42477876 C18.805312,9.14159065 19.1474911,9 19.5486726,9 C19.949854,9 20.2920331,9.14159065 20.5752212,9.42477876 C20.8584093,9.70796687 21,10.050146 21,10.4513274 C21,10.8525089 20.8584093,11.194688 20.5752212,11.4778761 L19.0530973,12.9646018 L19.0530973,12.9646018 Z" id="button_edit"></path>
            </g>
        </g>
    </g>
</svg>