<?xml version="1.0" encoding="UTF-8" standalone="no"?>
<svg width="30px" height="30px" viewBox="0 0 30 30" version="1.1" xmlns="http://www.w3.org/2000/svg" xmlns:xlink="http://www.w3.org/1999/xlink">
    <!-- Generator: Sketch 3.6.1 (26313) - http://www.bohemiancoding.com/sketch -->
    <title>creative_icon_9</title>
    <desc>Created with Sketch.</desc>
    <defs></defs>
    <g id="Creative-Exercise-V3" stroke="none" stroke-width="1" fill="none" fill-rule="evenodd">
        <g id="Assets" transform="translate(-501.000000, -458.000000)" fill="#B3B3B3">
            <path d="M501,467 L510,458 L531,458 L531,488 L501,488 L501,467 L501,467 Z M511,460 L529,460 L529,486 L503,486 L503,468 L511,468 L511,460 L511,460 Z M512.551622,478.80236 L509,480 L510.19764,476.448378 L516.970501,469.634218 L519.365782,472.029499 L512.551622,478.80236 L512.551622,478.80236 Z M520.728614,470.625369 L518.374631,468.271386 L520.109145,466.495575 C520.439531,466.165189 520.83874,466 521.306785,466 C521.77483,466 522.174039,466.165189 522.504425,466.495575 C522.834811,466.825961 523,467.22517 523,467.693215 C523,468.16126 522.834811,468.560469 522.504425,468.890855 L520.728614,470.625369 L520.728614,470.625369 Z" id="creative_icon_9"></path>
        </g>
    </g>
</svg>