<svg xmlns="http://www.w3.org/2000/svg" viewBox="0 0 26.064 26.064" enable-background="new 0 0 26.064 26.064"><path d="M19.27 23.146l-1.218-1.22c-.555.253-1.146.419-1.75.49-.446.067-.729.053-1.222.021l-.059-.004c-3.077-.291-5.397-2.843-5.397-5.938.005-1.614.631-3.109 1.762-4.232 1.131-1.122 2.631-1.737 4.224-1.729 1.381.004 2.65.484 3.66 1.279v-8.444c0-.511-.412-.923-.921-.923l-15.723-.008c0-.633.953-.955.953-.955h15.692c.982 0 .954.865.954.865v10.4c.831 1.025 1.331 2.329 1.331 3.746-.002.865-.184 1.699-.531 2.464l.654.656v-18.748c-.001-.691-.867-.866-.867-.866h-17.406c-2.597 0-2.597 2.405-2.597 2.405v22.156c0 .509.412.923.923.923h16.617c.51 0 .921-.414.921-.923h1.414l-.93-.932-.484-.483zm-13.923-17.271h9.53v1.803h-9.53v-1.803zm19.657 18.736l-5.375-5.374c.546-.782.868-1.729.871-2.754.009-2.674-2.152-4.85-4.826-4.856-2.673-.012-4.85 2.15-4.859 4.824-.008 2.523 1.915 4.603 4.381 4.836h.024c.483.034.667.041.998-.011.815-.093 1.568-.391 2.208-.838l5.376 5.375c.332.334.871.334 1.203.002.332-.333.332-.87-.001-1.204zm-9.358-4.512c-2.006-.006-3.627-1.638-3.62-3.646.006-2.004 1.64-3.624 3.645-3.616 2.005.006 3.625 1.638 3.618 3.643-.005 2.007-1.639 3.626-3.643 3.619z" fill="#010002"/></svg>