<?xml version="1.0" encoding="UTF-8" standalone="no"?>
<svg width="19px" height="12px" viewBox="0 0 19 12" version="1.1" xmlns="http://www.w3.org/2000/svg" xmlns:xlink="http://www.w3.org/1999/xlink">
    <!-- Generator: Sketch 3.6.1 (26313) - http://www.bohemiancoding.com/sketch -->
    <title>svg_icon_dictionary</title>
    <desc>Created with Sketch.</desc>
    <defs></defs>
    <g id="Translate-V4" stroke="none" stroke-width="1" fill="none" fill-rule="evenodd">
        <g id="Assets" transform="translate(-596.000000, -409.000000)" fill="#000000">
            <path d="M605.202022,421 L603.980663,417.681199 L599.304362,417.681199 L598.1081,421 L596,421 L600.575914,409 L602.750938,409 L607.326852,421 L605.202022,421 L605.202022,421 L605.202022,421 L605.202022,421 Z M603.453638,415.997275 L602.307568,412.743869 C602.223913,412.525884 602.108191,412.182564 601.9604,411.713896 C601.81261,411.245229 601.710831,410.901908 601.655061,410.683924 C601.504481,411.354227 601.284193,412.087189 600.994188,412.882834 L599.889946,415.997275 L603.453638,415.997275 L603.453638,415.997275 L603.453638,415.997275 L603.453638,415.997275 Z M615,421 L607.981367,421 L607.981367,419.814714 L612.657667,413.430518 L608.265793,413.430518 L608.265793,411.959128 L614.866152,411.959128 L614.866152,413.299728 L610.290238,419.52861 L615,419.52861 L615,421 L615,421 L615,421 L615,421 Z" id="svg_icon_dictionary"></path>
        </g>
    </g>
</svg>