<?xml version="1.0" encoding="UTF-8" standalone="no"?>
<svg width="20px" height="20px" viewBox="0 0 20 20" version="1.1" xmlns="http://www.w3.org/2000/svg" xmlns:xlink="http://www.w3.org/1999/xlink">
    <!-- Generator: Sketch 3.7.1 (28215) - http://www.bohemiancoding.com/sketch -->
    <title>icon-enter</title>
    <desc>Created with Sketch.</desc>
    <defs></defs>
    <g id="Garbage" stroke="none" stroke-width="1" fill="none" fill-rule="evenodd">
        <path d="M8.453125,15.5729167 L14,10 L8.453125,4.453125 L6.890625,6.015625 L9.75520833,8.90625 L0,8.90625 L0,11.1197917 L9.75520833,11.1197917 L6.890625,14.0104167 L8.453125,15.5729167 L8.453125,15.5729167 Z M19.0081969,20 C19.5559546,20 20,19.5446944 20,19.0081969 L20,0.99180311 C20,0.444045377 19.5446944,0 19.0081969,0 L0.99180311,0 C0.444045377,0 0,0.437881351 0,1.00292933 L0,7 L2,7 L2,2 L18,2 L18,18 L2,18 L2,13 L0,13 L0,18.9970707 C0,19.5509732 0.455305576,20 0.99180311,20 L19.0081969,20 Z" id="icon-enter" fill="#279CC4"></path>
    </g>
</svg>