<?xml version="1.0" encoding="UTF-8" standalone="no"?>
<svg width="20px" height="20px" viewBox="0 0 20 20" version="1.1" xmlns="http://www.w3.org/2000/svg" xmlns:xlink="http://www.w3.org/1999/xlink">
    <!-- Generator: Sketch 3.7.1 (28215) - http://www.bohemiancoding.com/sketch -->
    <title>icon-exit</title>
    <desc>Created with Sketch.</desc>
    <defs></defs>
    <g id="Page-1" stroke="none" stroke-width="1" fill="none" fill-rule="evenodd">
        <path d="M20,10 L14.453125,4.453125 L12.890625,6.015625 L15.7552083,8.90625 L6,8.90625 L6,11.1197917 L15.7552083,11.1197917 L12.890625,14.0104167 L14.453125,15.5729167 L20,10 Z M0.99180311,20 C0.444045377,20 0,19.5446944 0,19.0081969 L0,0.99180311 C0,0.444045377 0.455305576,0 0.99180311,0 L19.0081969,0 C19.5559546,0 20,0.443716645 20,0.999807492 L20,5 L18,5 L18,2 L2,2 L2,18 L18,18 L18,15 L20,15 L20,19.0001925 C20,19.5523709 19.5446944,20 19.0081969,20 L0.99180311,20 Z" id="icon-exit" fill="#279CC4"></path>
    </g>
</svg>