<?xml version="1.0" encoding="UTF-8" standalone="no"?>
<svg width="127px" height="34px" viewBox="0 0 127 34" version="1.1" xmlns="http://www.w3.org/2000/svg" xmlns:xlink="http://www.w3.org/1999/xlink">
    <!-- Generator: Sketch 3.6.1 (26313) - http://www.bohemiancoding.com/sketch -->
    <title>jetspeak_dark</title>
    <desc>Created with Sketch.</desc>
    <defs></defs>
    <g id="Dashboard-V6" stroke="none" stroke-width="1" fill="none" fill-rule="evenodd">
        <g id="jetspeak_dark">
            <path d="M54.9464249,0 L117.239371,0 C122.817085,0 126.740697,4.57043329 125.958998,10.1501912 L124.909312,17.6457128 C124.459368,20.8569003 122.672509,23.7330216 120.157824,25.5962421 C118.374264,21.7616887 115.153466,15.0559657 114.721937,13.6235445 C115.441244,12.7047262 116.58878,12.6928971 118.096931,9.9881601 C118.793424,8.74005273 120.096805,5.55114803 117.468604,5.71235388 C115.569603,5.82871919 115.335698,8.24075476 114.336035,9.59449873 C113.571378,10.6299574 111.779022,11.96527 110.21425,12.5735057 C110.43826,11.0205928 110.839004,9.44759784 111.124033,7.90293774 C111.525052,5.73051017 109.838243,5.16959085 108.428491,6.13352478 C107.444496,6.80613278 107.316686,8.77856607 107.029733,10.2450991 L105.220886,19.4519886 C104.953173,20.784 104.684911,22.9352452 106.945626,22.4043113 C109.431176,21.8205591 108.638483,17.7483234 109.513909,16.7048869 C109.668929,16.5200229 111.059166,15.7610349 111.337873,15.6438443 C112.087689,17.1153291 114.998171,23.8367325 116.680033,27.6413005 C116.639079,27.6487281 116.597026,27.6561557 116.553598,27.663033 C117.140147,28.9237948 117.579372,29.8888291 117.722298,30.2717618 C118.232437,31.6431118 118.273391,32.7850324 116.999419,33.5137598 C115.674049,34.2713723 113.335549,33.6350769 112.695677,32.3063666 C109.779973,26.2490432 94.4903904,27.7959041 85.9955979,27.7959041 L51.053047,27.7959041 C45.4767074,27.7959041 41.5511711,23.2282217 42.333145,17.6457128 L43.3831064,10.1501912 C44.1650803,4.56768234 49.368711,0 54.9464249,0 L54.9464249,0 Z M56.4622723,5.59873952 C53.2934228,5.99570203 50.458527,8.37500127 50.7193682,11.9000724 C51.0489241,16.3566163 57.3371485,14.7170483 57.6914418,17.0118933 C57.9641019,18.7769047 55.9771462,19.7193812 54.2941844,19.3215934 C51.9955386,18.7782802 52.3773177,16.5315769 50.3002082,17.3912497 C49.6935944,17.6421366 49.0974252,18.2858596 48.9954525,19.0121112 C48.7244415,20.936953 51.675053,22.6062313 54.4832874,22.6221868 C61.2753284,22.6609752 63.3961405,15.331061 59.5610328,13.2860025 C58.1949835,12.5581004 55.8578573,12.4541144 54.9417523,11.7864581 C53.6218793,10.8244498 54.8166914,8.63826747 56.917164,8.75600826 C59.1402236,8.88062643 59.0344029,11.3223723 61.071383,10.4225356 C61.6529847,10.1655966 62.2697683,9.537554 62.3318864,8.72134625 C62.4888309,6.66005718 59.2160847,5.25404511 56.4622723,5.59873952 L56.4622723,5.59873952 Z M67.7889372,16.6801283 C70.4973979,16.6801283 72.0297368,16.8608659 74.0700153,15.4746607 C77.3735457,13.229608 78.4155362,7.38025667 73.9795866,6.04879543 C72.8919695,5.72225731 67.6682741,5.60891804 66.7953219,6.04907052 C65.469402,6.71700191 65.2585852,9.85666455 64.9155611,11.6684422 C64.6921007,12.8510769 63.0050161,20.5600724 63.1919203,21.4158939 C63.410708,22.4183412 64.6723109,22.6865591 65.6411889,22.1963393 C67.5091307,21.251662 66.7562919,17.2856131 67.7889372,16.6801283 L67.7889372,16.6801283 Z M69.0414697,9.05586213 C71.1389188,8.90153367 73.8770642,8.76233545 73.082172,11.5721588 C72.5068921,13.604838 70.4487478,13.469216 68.210296,13.4670152 L69.0414697,9.05586213 L69.0414697,9.05586213 Z M81.1443364,19.1339784 L81.8210393,15.4702592 C83.9654893,15.4760362 87.6868054,16.1186588 88.3088113,14.1544784 C89.2282147,11.2516728 84.2529918,12.4937281 82.4812506,12.1999263 L83.0691741,9.05723761 C84.9695492,8.91556353 88.9948594,9.53507814 90.0937457,8.44542567 C90.6627039,7.8814803 90.9862129,6.39404003 89.9486202,5.94535959 C89.329088,5.67769187 86.9529318,5.81578971 86.0912489,5.81578971 C83.644454,5.81578971 80.5528398,5.21470648 79.8354578,7.20997268 C79.5006795,8.14199555 77.6602236,18.1793977 77.2784445,20.1100165 C76.708112,22.9960413 78.8165555,22.348467 82.7266997,22.348467 C84.1042931,22.348467 88.5971384,22.9828367 88.0160865,20.1111169 C87.7656899,18.8720877 86.2831004,19.1317776 85.1737695,19.1339784 C83.8308084,19.1361792 82.4872975,19.1339784 81.1443364,19.1339784 L81.1443364,19.1339784 Z M93.7018199,19.2775781 L99.2075207,19.2830801 C99.3542955,20.4362795 99.3872785,21.756737 100.142866,22.2227484 C101.155721,22.8474898 102.317276,22.1333424 102.728465,21.5479396 C103.599768,20.3075349 102.599831,16.4449219 102.326896,14.8246105 C101.953087,12.6029409 101.581478,10.3259771 101.245051,8.10788374 C101.059796,6.88536023 100.822317,6.03008895 99.7437707,5.77342503 C98.5030571,5.47824778 97.520711,6.07988119 96.9371853,6.72608005 C96.2148559,7.52578208 92.1667324,15.1129104 91.3723898,16.6179568 C90.9185976,17.4776296 90.4920164,18.2396436 90.0104635,19.0742827 C87.8176383,22.8780254 91.202527,22.8727986 92.2901441,21.8167078 C92.6350921,21.4816417 93.4714881,19.8484009 93.7018199,19.2775781 L93.7018199,19.2775781 Z M97.62983,12.0219396 C97.6696846,11.9539911 97.7543412,11.8139676 97.8161844,11.7231861 C97.9250286,11.5622554 97.9648832,11.5171398 98.0352471,11.4200311 L98.7259678,16.3090248 L95.3463014,16.2999466 L97.62983,12.0219396 L97.62983,12.0219396 Z" id="Fill-67" fill="#279CC4"></path>
            <path d="M17.5419423,19.0159625 L18.2186452,15.3522433 C20.3630952,15.3580203 24.0844113,16.0006429 24.7064172,14.0364625 C25.6258206,11.1336569 20.6505977,12.3757122 18.8785817,12.0819104 L19.4670548,8.93922173 C21.36743,8.79754765 25.3924653,9.41706226 26.4916265,8.32740978 C27.0603098,7.76346442 27.3840937,6.27602414 26.3459512,5.82734371 C25.7266939,5.55967598 23.3505377,5.69777382 22.4888547,5.69777382 C15.2548405,5.69777382 16.6687152,4.90274841 14.9313314,13.5930089 C14.5025514,15.7379269 14.0990584,17.8520343 13.6763252,19.9920006 C13.1057179,22.8780254 15.2141614,22.2304511 19.1243056,22.2304511 C20.501899,22.2304511 24.9950192,22.8648208 24.4139672,19.993101 C24.1632958,18.7540718 22.6807063,19.0137618 21.5713754,19.0159625 C20.2284142,19.0181633 18.8849034,19.0159625 17.5419423,19.0159625 L17.5419423,19.0159625 Z M9.2890257,9.19093393 L5.62955286,9.19093393 C6.03606934,5.93132973 6.39888323,5.50190597 8.53756117,5.50190597 C8.9135683,5.50190597 9.39704529,5.51538564 9.89234123,5.52804003 C11.150096,5.56022618 12.4435825,5.54922236 13.5394454,5.53904384 C12.9597678,9.62998602 12.4496294,13.7528393 11.2619637,17.7276912 C9.71395773,22.9074606 3.65991321,23.4934136 1.24390252,21.2992535 C-1.17128359,19.1059187 1.02016729,16.3954047 2.94363063,17.2974422 C3.90508744,17.7488736 3.46558789,19.1697408 5.07323823,19.2877567 C8.44603312,19.5356175 8.83715749,11.9311582 9.2890257,9.19093393 L9.2890257,9.19093393 Z M32.2831806,8.95215121 C31.8315873,11.3707891 31.33904,13.7184524 30.8797505,16.1926595 C30.5320539,18.0641328 28.8210566,22.7305743 31.8071248,22.311054 C33.9144689,22.0150515 33.9705401,18.9427872 34.520533,16.1585476 C34.7679061,14.9065889 34.994115,13.7052478 35.2450613,12.4483374 C35.4022807,11.6615648 35.4819898,9.31390152 36.150172,8.90868615 C37.0462124,8.90868615 38.6434181,9.04210737 39.3734436,8.76866264 C40.0138651,8.52877954 40.7983127,7.67790978 40.5877707,6.64905337 C40.3720064,5.59433799 39.2871379,5.69172173 38.1390518,5.69694854 L31.2554828,5.69639835 C29.869094,5.68979606 29.2800711,5.66668806 28.5953973,6.55992249 C28.0454044,7.27737103 28.0396324,8.40306099 28.9400705,8.77554003 C29.619522,9.05668742 31.3733973,8.84844028 32.2831806,8.95215121 L32.2831806,8.95215121 Z" id="Fill-68" fill="#FFFFFF"></path>
        </g>
    </g>
</svg>