<?xml version="1.0" encoding="UTF-8" standalone="no"?>
<svg width="360px" height="97px" viewBox="0 0 360 97" version="1.1" xmlns="http://www.w3.org/2000/svg" xmlns:xlink="http://www.w3.org/1999/xlink">
    <!-- Generator: Sketch 3.6.1 (26313) - http://www.bohemiancoding.com/sketch -->
    <title>jetspeak</title>
    <desc>Created with Sketch.</desc>
    <defs></defs>
    <g id="Dashboard-V6" stroke="none" stroke-width="1" fill="none" fill-rule="evenodd">
        <g id="jetspeak" transform="translate(0.000000, -1.000000)">
            <path d="M156.473976,1.12180069 L334.453822,1.12180069 C350.390147,1.12180069 361.600468,14.1809675 359.367043,30.1231331 L356.367938,51.5381231 C355.083169,60.7129443 349.977074,68.9312198 342.792259,74.2547068 C337.696373,63.2980541 328.494879,44.1388455 327.26194,40.0462135 C329.316315,37.4218043 332.594205,37.3872209 336.904779,29.660187 C338.893973,26.0933799 342.61792,16.9822236 335.108772,17.4428118 C329.68384,17.7752841 329.014755,24.6676003 326.159363,28.5346542 C323.973841,31.4938936 318.852825,35.3090724 314.382047,37.0468887 C315.02129,32.6092086 316.166274,28.1149374 316.981428,23.7016228 C318.127197,17.4946869 313.307741,15.8920603 309.279878,18.6469432 C306.469249,20.5686803 306.103293,26.204204 305.283428,30.3935124 L300.116079,56.6989109 C299.3504,60.5054438 298.584722,66.6510728 305.042338,65.1341187 C312.144694,63.4662552 309.879856,51.8312961 312.381073,48.850049 C312.823989,48.322652 316.796094,46.1533291 317.5924,45.8192848 C319.73473,50.023527 328.051178,69.2267508 332.855713,80.097731 C332.739487,80.1189526 332.619335,80.1393883 332.49447,80.1598239 C334.17111,83.7620004 335.426038,86.5184553 335.832829,87.6125486 C337.291938,91.5306916 337.408164,94.7941078 333.768245,96.8754003 C329.982259,99.0407932 323.300044,97.2220203 321.472624,93.4257052 C313.14204,76.119853 269.456734,80.5394554 245.185899,80.5394554 L145.350039,80.5394554 C129.418425,80.5394554 118.202607,67.4889345 120.436033,51.5381231 L123.435923,30.1231331 C125.670134,14.1723217 140.53765,1.12180069 156.473976,1.12180069 L156.473976,1.12180069 Z M160.804183,17.1189853 C151.751113,18.2523779 143.65141,25.0503757 144.396671,35.1227936 C145.339045,47.855776 163.304615,43.1712961 164.317666,49.727996 C165.096695,54.7700998 159.418894,57.4628898 154.610432,56.3263532 C148.042087,54.7740298 149.133669,48.3548775 143.198286,50.8118715 C141.466674,51.5279052 139.762548,53.3678998 139.470412,55.4429043 C138.697666,60.9424524 147.127199,65.7118188 155.150726,65.7574061 C174.556557,65.8674442 180.61602,44.9248321 169.657784,39.0825939 C165.755572,37.0020875 159.078854,36.7049846 156.460625,34.7973952 C152.688774,32.0488001 156.103309,25.8033509 162.104659,26.1397531 C168.456258,26.4950191 168.154698,33.4714358 173.973071,30.9012598 C175.635575,30.1663623 177.397814,28.371955 177.575294,26.0399328 C178.024493,20.1513215 168.672218,16.1333581 160.804183,17.1189853 L160.804183,17.1189853 Z M193.166083,48.7793102 C200.905327,48.7793102 205.283438,49.2964894 211.112805,45.3351171 C220.551464,38.9214667 223.529365,22.2090343 210.854438,18.4040733 C207.74696,17.4718933 192.822116,17.1472808 190.327967,18.4048593 C186.539625,20.3140207 185.937291,29.2844854 184.958007,34.4602069 C184.318764,37.8399492 179.498522,59.8656508 180.032534,62.310069 C180.658427,65.174204 184.262221,65.9405409 187.030444,64.5399129 C192.367421,61.841621 190.215668,50.5100526 193.166083,48.7793102 L193.166083,48.7793102 Z M196.745532,26.9964785 C202.738244,26.554754 210.562302,26.1570448 208.290396,34.1851116 C206.646739,39.9927664 200.766327,39.606061 194.37075,39.5997731 L196.745532,26.9964785 L196.745532,26.9964785 Z M231.325151,55.7903104 L233.258588,45.3233273 C239.385588,45.339047 250.01792,47.1751116 251.79508,41.5639535 C254.421947,33.2702233 240.207024,36.8189526 235.144906,35.978733 L236.824688,27.0004084 C242.254331,26.5948394 253.755217,28.3656671 256.895678,25.2515883 C258.520487,23.6411018 259.444799,19.3904865 256.479463,18.1093284 C254.710156,17.3437775 247.921138,17.7391287 245.459972,17.7391287 C238.467559,17.7391287 229.635161,16.021748 227.586284,21.7217226 C226.628989,24.3846451 221.370544,53.063723 220.280531,58.5789907 C218.650225,66.8247758 224.674349,64.9745634 235.846975,64.9745634 C239.782171,64.9745634 252.618872,66.7870485 250.959508,58.5821347 C250.243304,55.0428372 246.007334,55.7848085 242.837817,55.7903104 C239.000786,55.7965983 235.162183,55.7903104 231.325151,55.7903104 L231.325151,55.7903104 Z M267.203676,56.2005954 L282.93425,56.2163151 C283.353606,59.5111708 283.447843,63.2839063 285.606664,64.6161536 C288.500537,66.4011291 291.819263,64.3599219 292.994089,62.6873425 C295.483527,59.1433291 292.626564,48.1072917 291.847535,43.4778308 C290.778726,37.1309893 289.716985,30.6253785 288.756549,24.2879688 C288.226463,20.7942585 287.54874,18.3506262 284.467178,17.6180868 C280.921496,16.7747232 278.114793,18.4936758 276.447577,20.3391723 C274.384564,22.6240352 262.817711,44.3015447 260.548161,48.6024632 C259.251612,51.0578853 258.032809,53.2350681 256.656943,55.6205373 C250.391728,66.4875876 260.062839,66.4734398 263.170316,63.4552514 C264.155882,62.4979198 266.5448,57.8315175 267.203676,56.2005954 L267.203676,56.2005954 Z M278.426562,35.4709857 C278.540432,35.276847 278.783093,34.8767798 278.959003,34.6166183 C279.269986,34.1576021 279.383856,34.0279143 279.584896,33.7504611 L281.559169,47.7198003 L271.902194,47.6938628 L278.426562,35.4709857 L278.426562,35.4709857 Z" id="Fill-18" fill="#21A3CC"></path>
            <path d="M49.6042339,55.4523362 L51.5376707,44.9853531 C57.6646706,45.0010728 68.2970024,46.8371374 70.0741622,41.2259793 C72.701029,32.932249 58.4861064,36.4809784 53.4239888,35.6407588 L55.10377,26.6624342 C60.5341987,26.2568651 72.0350849,28.0276929 75.1747601,24.9136141 C76.7995695,23.3031276 77.7238811,19.0525123 74.758545,17.7713541 C72.9892383,17.0058032 66.2002208,17.4011545 63.7382694,17.4011545 C43.0696573,17.4011545 47.1092994,15.1288673 42.1453457,39.958969 C40.9202598,46.0865202 39.7682079,52.126827 38.5596136,58.2410165 C36.929307,66.4868016 42.9534312,64.6365892 54.1260572,64.6365892 C58.0612529,64.6365892 70.8987393,66.4490742 69.2385908,58.2441605 C68.5223868,54.704863 64.2864168,55.4468343 61.1168998,55.4523362 C57.279868,55.4586241 53.442051,55.4523362 49.6042339,55.4523362 L49.6042339,55.4523362 Z M26.0252575,27.3816119 L15.5688355,27.3816119 C16.7303111,18.0676711 17.7669223,16.841532 23.8774307,16.841532 C24.9517367,16.841532 26.3330996,16.8800454 27.7482308,16.9154148 C31.341816,17.0073752 35.0382771,16.9767217 38.1685285,16.9468542 C36.5123067,28.6352605 35.0547686,40.4156272 31.6614378,51.7723471 C27.2385637,66.5709022 9.94207894,68.2450535 3.03840596,61.9768107 C-3.86212578,55.7101398 2.39916244,47.9650281 7.89398667,50.5430641 C10.6417914,51.832082 9.38607844,55.8917027 13.9793651,56.2296769 C23.615922,56.9378508 24.7326349,35.2100381 26.0252575,27.3816119 L26.0252575,27.3816119 Z M91.7220577,26.6993756 C90.431791,33.6089835 89.0245129,40.3173788 87.7122575,47.385756 C86.7196238,52.7328227 81.8302747,66.0662988 90.3618983,64.8676693 C96.3828812,64.0211617 96.5430848,55.2440497 98.1152783,47.2882937 C98.8220586,43.7112688 99.4683699,40.2788655 100.184574,36.6876929 C100.633772,34.4405573 100.861512,27.7329479 102.77139,26.5744037 C105.33072,26.5744037 109.894165,26.9563932 111.980737,26.1743365 C113.808942,25.4889563 116.051007,23.0578998 115.449458,20.11831 C114.832988,17.1056235 111.73415,17.3838628 108.453118,17.3980105 L88.7857782,17.3964386 C84.8254526,17.3783609 83.1417448,17.311552 81.185534,19.8644364 C79.6141258,21.9142893 79.5976342,25.1305464 82.1703145,26.1947722 C84.1116045,26.9972645 89.1226768,26.4022726 91.7220577,26.6993756 L91.7220577,26.6993756 Z" id="Fill-19" fill="#14667F"></path>
        </g>
    </g>
</svg>