<?xml version="1.0" encoding="UTF-8" standalone="no"?>
<svg width="36px" height="42px" viewBox="0 0 36 42" version="1.1" xmlns="http://www.w3.org/2000/svg" xmlns:xlink="http://www.w3.org/1999/xlink">
    <!-- Generator: Sketch 3.6.1 (26313) - http://www.bohemiancoding.com/sketch -->
    <title>svg_icon_clock_gray</title>
    <desc>Created with Sketch.</desc>
    <defs></defs>
    <g id="Styles" stroke="none" stroke-width="1" fill="none" fill-rule="evenodd">
        <g id="Icons" transform="translate(-20.000000, -20.000000)" fill="#B3B3B3">
            <g id="Icons-/-svg_icon_clock_gray" transform="translate(20.000000, 20.000000)">
                <path d="M24,0 L12,0 L12,3.984375 L24,3.984375 L24,0 L24,0 Z M15.984375,26.015625 L20.015625,26.015625 L20.015625,14.015625 L15.984375,14.015625 L15.984375,26.015625 L15.984375,26.015625 Z M32.0625,12.796875 L34.921875,9.9375 C34.4843728,9.4374975 34.0312523,8.94531492 33.5625,8.4609375 C33.0937477,7.97656008 32.5937527,7.53125203 32.0625,7.125 L29.25,9.9375 C27.6874922,8.71874391 25.9531345,7.75781602 24.046875,7.0546875 C22.1406155,6.35155898 20.1250106,6 18,6 C15.4999875,6 13.1640734,6.46874531 10.9921875,7.40625 C8.82030164,8.34375469 6.9140707,9.6328043 5.2734375,11.2734375 C3.6328043,12.9140707 2.34375469,14.8203016 1.40625,16.9921875 C0.468745312,19.1640734 0,21.4999875 0,24 C0,26.5000125 0.468745312,28.8359266 1.40625,31.0078125 C2.34375469,33.1796984 3.62499187,35.0859293 5.25,36.7265625 C6.87500813,38.3671957 8.78123906,39.6562453 10.96875,40.59375 C13.1562609,41.5312547 15.4999875,42 18,42 C20.5000125,42 22.8437391,41.5312547 25.03125,40.59375 C27.2187609,39.6562453 29.1249919,38.3671957 30.75,36.7265625 C32.3750081,35.0859293 33.6562453,33.1796984 34.59375,31.0078125 C35.5312547,28.8359266 36,26.5000125 36,24 C36,21.8749894 35.648441,19.8593845 34.9453125,17.953125 C34.242184,16.0468655 33.2812561,14.3281327 32.0625,12.796875 L32.0625,12.796875 L32.0625,12.796875 Z M18,38.015625 C16.0624903,38.015625 14.242196,37.6484412 12.5390625,36.9140625 C10.835929,36.1796838 9.35156883,35.1796938 8.0859375,33.9140625 C6.82030617,32.6484312 5.82031617,31.164071 5.0859375,29.4609375 C4.35155883,27.757804 3.984375,25.9375097 3.984375,24 C3.984375,22.0624903 4.35155883,20.242196 5.0859375,18.5390625 C5.82031617,16.835929 6.82030617,15.3515688 8.0859375,14.0859375 C9.35156883,12.8203062 10.835929,11.8203162 12.5390625,11.0859375 C14.242196,10.3515588 16.0624903,9.984375 18,9.984375 C19.9375097,9.984375 21.757804,10.3515588 23.4609375,11.0859375 C25.164071,11.8203162 26.6484312,12.8203062 27.9140625,14.0859375 C29.1796938,15.3515688 30.1796838,16.835929 30.9140625,18.5390625 C31.6484412,20.242196 32.015625,22.0624903 32.015625,24 C32.015625,25.9375097 31.6484412,27.757804 30.9140625,29.4609375 C30.1796838,31.164071 29.1796938,32.6484312 27.9140625,33.9140625 C26.6484312,35.1796938 25.164071,36.1796838 23.4609375,36.9140625 C21.757804,37.6484412 19.9375097,38.015625 18,38.015625 L18,38.015625 L18,38.015625 Z" id="svg_icon_clock_gray"></path>
            </g>
        </g>
    </g>
</svg>