<?xml version="1.0" encoding="UTF-8" standalone="no"?>
<svg width="96px" height="96px" viewBox="0 0 96 96" version="1.1" xmlns="http://www.w3.org/2000/svg" xmlns:xlink="http://www.w3.org/1999/xlink" xmlns:sketch="http://www.bohemiancoding.com/sketch/ns">
    <!-- Generator: Sketch Beta 3.4.1 (15680) - http://www.bohemiancoding.com/sketch -->
    <title>Progress</title>
    <desc>Created with Sketch Beta.</desc>
    <defs></defs>
    <g id="Assets" stroke="none" stroke-width="1" fill="none" fill-rule="evenodd" sketch:type="MSPage">
        <g id="Artboard-1" sketch:type="MSArtboardGroup" transform="translate(-2004.000000, -1291.000000)" fill="#279CC4">
            <path d="M2052,1387 C2052.7117,1387 2053.42167,1386.98449 2054.12956,1386.95355 L2053.86759,1380.95927 C2053.24695,1380.9864 2052.62433,1381 2052,1381 L2052,1387 L2052,1387 Z M2055.19669,1386.89513 C2055.90698,1386.84838 2056.61483,1386.78606 2057.31987,1386.70827 L2056.66184,1380.74446 C2056.04459,1380.81257 2055.42477,1380.86714 2054.80266,1380.90808 L2055.19669,1386.89513 L2055.19669,1386.89513 Z M2058.38389,1386.57885 C2059.08986,1386.48497 2059.79262,1386.37553 2060.49181,1386.25067 L2059.43694,1380.34412 C2058.8254,1380.45334 2058.21065,1380.54907 2057.59302,1380.6312 L2058.38389,1386.57885 L2058.38389,1386.57885 Z M2061.5491,1386.04953 C2062.24734,1385.90854 2062.94159,1385.75209 2063.63145,1385.58035 L2062.182,1379.75806 C2061.57893,1379.90819 2060.97198,1380.04497 2060.3615,1380.16824 L2061.5491,1386.04953 L2061.5491,1386.04953 Z M2064.68621,1385.30493 C2065.37279,1385.11723 2066.05456,1384.91432 2066.73111,1384.69637 L2064.89138,1378.98539 C2064.30003,1379.17588 2063.70412,1379.35324 2063.104,1379.5173 L2064.68621,1385.30493 L2064.68621,1385.30493 Z M2067.72296,1384.3648 C2068.39579,1384.13164 2069.06299,1383.88353 2069.72412,1383.62071 L2067.50762,1378.04513 C2066.92968,1378.27488 2066.34646,1378.49176 2065.75834,1378.69557 L2067.72296,1384.3648 L2067.72296,1384.3648 Z M2070.72465,1383.20977 C2071.37975,1382.93198 2072.02838,1382.63965 2072.6701,1382.33303 L2070.08336,1376.91927 C2069.52223,1377.18739 2068.95509,1377.44299 2068.38231,1377.68587 L2070.72465,1383.20977 L2070.72465,1383.20977 Z M2073.64543,1381.85332 C2074.27989,1381.53225 2074.90705,1381.19712 2075.52644,1380.8482 L2072.58162,1375.62058 C2072.0398,1375.92579 2071.49124,1376.21893 2070.9363,1376.49975 L2073.64543,1381.85332 L2073.64543,1381.85332 Z M2076.4711,1380.3018 C2077.0823,1379.93894 2077.68534,1379.56254 2078.27979,1379.17294 L2074.99078,1374.15473 C2074.47058,1374.49568 2073.94288,1374.82504 2073.40809,1375.14254 L2076.4711,1380.3018 L2076.4711,1380.3018 Z M2079.12474,1378.60628 C2079.71097,1378.20407 2080.28822,1377.7889 2080.85607,1377.36112 L2077.24583,1372.56881 C2076.74874,1372.9433 2076.24343,1373.30672 2075.73029,1373.65878 L2079.12474,1378.60628 L2079.12474,1378.60628 Z M2081.70862,1376.7038 C2082.26684,1376.26339 2082.81527,1375.81066 2083.35349,1375.34598 L2079.43248,1370.80443 C2078.9612,1371.21131 2078.481,1371.60772 2077.99224,1371.99333 L2081.70862,1376.7038 L2081.70862,1376.7038 Z M2084.16309,1374.63103 C2084.69084,1374.15437 2085.208,1373.66608 2085.71419,1373.16657 L2081.49975,1368.89591 C2081.05647,1369.33335 2080.60358,1369.76095 2080.14143,1370.17837 L2084.16309,1374.63103 L2084.16309,1374.63103 Z M2086.47269,1372.40115 C2086.96755,1371.89051 2087.45108,1371.36899 2087.92289,1370.83699 L2083.43395,1366.85587 C2083.02078,1367.32173 2082.59735,1367.77843 2082.164,1368.22561 L2086.47269,1372.40115 L2086.47269,1372.40115 Z M2088.63234,1370.01874 C2089.09222,1369.47614 2089.54005,1368.92343 2089.97546,1368.36103 L2085.23118,1364.68792 C2084.84996,1365.18032 2084.45785,1365.66426 2084.05517,1366.13936 L2088.63234,1370.01874 L2088.63234,1370.01874 Z M2090.63059,1367.49486 C2091.05323,1366.92278 2091.46315,1366.3414 2091.86002,1365.75115 L2086.88086,1362.40331 C2086.5335,1362.91994 2086.17468,1363.42884 2085.80472,1363.92962 L2090.63059,1367.49486 L2090.63059,1367.49486 Z M2092.45933,1364.83755 C2092.84261,1364.23855 2093.21255,1363.63108 2093.56886,1363.01558 L2088.3762,1360.00955 C2088.06445,1360.54807 2087.74075,1361.0796 2087.40536,1361.60376 L2092.45933,1364.83755 L2092.45933,1364.83755 Z M2094.106,1362.06282 C2094.4482,1361.4393 2094.77652,1360.80816 2095.09068,1360.16983 L2089.70734,1357.52037 C2089.43258,1358.07864 2089.14542,1358.63067 2088.84609,1359.17606 L2094.106,1362.06282 L2094.106,1362.06282 Z M2095.54663,1359.21696 C2095.84651,1358.57206 2096.13202,1357.92038 2096.40294,1357.26236 L2090.85475,1354.97816 C2090.61789,1355.55345 2090.36826,1356.12323 2090.10606,1356.68711 L2095.54663,1359.21696 L2095.54663,1359.21696 Z M2096.76543,1356.35562 C2097.02263,1355.69267 2097.26507,1355.02376 2097.49255,1354.34933 L2091.80723,1352.43175 C2091.60839,1353.02127 2091.39647,1353.60597 2091.17164,1354.18548 L2096.76543,1356.35562 L2096.76543,1356.35562 Z M2097.82574,1353.32327 C2098.03771,1352.64443 2098.2346,1351.96047 2098.41621,1351.27181 L2092.61458,1349.74177 C2092.45583,1350.34372 2092.28373,1350.94155 2092.09846,1351.5349 L2097.82574,1353.32327 L2097.82574,1353.32327 Z M2098.6786,1350.22936 C2098.84429,1349.53827 2098.99467,1348.84291 2099.12958,1348.14366 L2093.23823,1347.00698 C2093.12027,1347.61838 2092.98879,1348.22633 2092.84394,1348.83051 L2098.6786,1350.22936 L2098.6786,1350.22936 Z M2099.32246,1347.07936 C2099.44122,1346.37906 2099.54452,1345.67529 2099.63225,1344.96842 L2093.67793,1344.22945 C2093.60117,1344.84795 2093.51079,1345.46364 2093.40692,1346.07622 L2099.32246,1347.07936 L2099.32246,1347.07936 Z M2099.75304,1343.89701 C2099.82463,1343.19099 2099.88074,1342.48228 2099.92125,1341.77121 L2093.93097,1341.42989 C2093.89548,1342.05279 2093.84634,1342.67348 2093.78365,1343.29167 L2099.75304,1343.89701 L2099.75304,1343.89701 Z M2099.97069,1340.69241 C2099.99013,1340.1318 2099.99992,1339.56994 2100,1339.007 C2100,1338.85312 2099.99934,1338.70539 2099.99799,1338.55689 L2093.99824,1338.61122 C2093.99942,1338.7415 2094,1338.87111 2094,1339.00656 C2093.99993,1339.50001 2093.99135,1339.9928 2093.97429,1340.48439 L2099.97069,1340.69241 L2099.97069,1340.69241 Z M2099.97668,1337.49041 C2099.95466,1336.77835 2099.91706,1336.06835 2099.86397,1335.36076 L2093.88078,1335.80969 C2093.9273,1336.42959 2093.96025,1337.05175 2093.97955,1337.67589 L2099.97668,1337.49041 L2099.97668,1337.49041 Z M2099.7723,1334.29689 C2099.70326,1333.5875 2099.61861,1332.88092 2099.51846,1332.1775 L2093.57837,1333.02323 C2093.666,1333.63874 2093.74009,1334.25712 2093.80052,1334.87808 L2099.7723,1334.29689 L2099.7723,1334.29689 Z M2099.35506,1331.11529 C2099.23897,1330.41318 2099.10739,1329.71463 2098.96046,1329.02004 L2093.09036,1330.26178 C2093.21884,1330.86913 2093.3339,1331.47999 2093.43543,1332.09403 L2099.35506,1331.11529 L2099.35506,1331.11529 Z M2098.72484,1327.96531 C2098.56183,1327.27257 2098.38348,1326.58418 2098.18996,1325.90058 L2092.41681,1327.53482 C2092.58596,1328.13237 2092.74187,1328.7341 2092.88437,1329.33967 L2098.72484,1327.96531 L2098.72484,1327.96531 Z M2097.88991,1324.8839 C2097.68064,1324.20284 2097.45626,1323.52698 2097.21695,1322.85675 L2091.56633,1324.87429 C2091.7755,1325.46013 2091.97163,1326.05088 2092.15455,1326.64617 L2097.88991,1324.8839 L2097.88991,1324.8839 Z M2096.84451,1321.84961 C2096.59012,1321.18481 2096.32097,1320.52605 2096.0373,1319.87375 L2090.53508,1322.26657 C2090.78309,1322.83686 2091.01838,1323.41277 2091.24077,1323.99392 L2096.84451,1321.84961 L2096.84451,1321.84961 Z M2095.59453,1318.88637 C2095.29605,1318.24045 2094.98323,1317.6014 2094.65635,1316.96967 L2089.32748,1319.72706 C2089.61337,1320.27955 2089.88693,1320.83841 2090.14794,1321.40325 L2095.59453,1318.88637 L2095.59453,1318.88637 Z M2094.14521,1316.00877 C2093.80424,1315.38497 2093.44945,1314.76889 2093.08113,1314.16097 L2087.94947,1317.26999 C2088.27171,1317.80188 2088.58211,1318.34087 2088.88039,1318.88657 L2094.14521,1316.00877 L2094.14521,1316.00877 Z M2092.50068,1313.22719 C2092.1185,1312.62778 2091.72305,1312.03692 2091.31468,1311.45506 L2086.40354,1314.9019 C2086.76098,1315.41119 2087.10708,1315.92831 2087.44155,1316.45289 L2092.50068,1313.22719 L2092.50068,1313.22719 Z M2090.72679,1310.63581 C2090.30622,1310.0625 2089.87299,1309.49856 2089.42746,1308.94441 L2084.75138,1312.70397 C2085.14146,1313.18914 2085.52075,1313.68287 2085.88893,1314.18477 L2090.72679,1310.63581 L2090.72679,1310.63581 Z M2088.74557,1308.11535 C2088.28771,1307.57114 2087.81785,1307.03709 2087.33637,1306.51363 L2082.92034,1310.57548 C2083.34196,1311.03387 2083.7534,1311.50151 2084.15432,1311.97806 L2088.74557,1308.11535 L2088.74557,1308.11535 Z M2086.59452,1305.72502 C2086.1014,1305.21247 2085.59701,1304.71086 2085.08173,1304.22059 L2080.94589,1308.56741 C2081.39713,1308.99675 2081.83885,1309.43602 2082.27068,1309.88488 L2086.59452,1305.72502 L2086.59452,1305.72502 Z M2084.29306,1303.48678 C2083.76722,1303.00836 2083.23087,1302.54161 2082.68442,1302.0869 L2078.84662,1306.69898 C2079.32511,1307.09714 2079.79477,1307.50586 2080.25524,1307.9248 L2084.29306,1303.48678 L2084.29306,1303.48678 Z M2081.84277,1301.40242 C2081.28627,1300.96015 2080.72004,1300.53023 2080.14453,1300.11302 L2076.62294,1304.97084 C2077.12676,1305.33608 2077.62247,1305.71246 2078.10969,1306.09967 L2081.84277,1301.40242 L2081.84277,1301.40242 Z M2079.25481,1299.48328 C2078.66965,1299.07897 2078.07557,1298.68768 2077.47301,1298.30972 L2074.28476,1303.39254 C2074.81207,1303.7233 2075.33199,1304.06575 2075.84414,1304.41961 L2079.25481,1299.48328 L2079.25481,1299.48328 Z M2076.54112,1297.73984 C2075.93008,1297.37567 2075.31097,1297.0251 2074.68422,1296.68843 L2071.84488,1301.97408 C2072.39314,1302.26859 2072.93476,1302.57528 2073.46934,1302.89389 L2076.54112,1297.73984 L2076.54112,1297.73984 Z M2073.71433,1296.18162 C2073.08031,1295.8595 2072.43908,1295.55149 2071.79107,1295.25786 L2069.31471,1300.72299 C2069.88135,1300.97975 2070.4421,1301.24909 2070.99656,1301.5308 L2073.71433,1296.18162 L2073.71433,1296.18162 Z M2070.82133,1294.83135 C2070.16726,1294.5523 2069.50681,1294.28781 2068.84043,1294.03811 L2066.73512,1299.65663 C2067.31766,1299.87491 2067.89502,1300.10613 2068.46684,1300.35008 L2070.82133,1294.83135 L2070.82133,1294.83135 Z M2067.93127,1293.70792 C2067.26045,1293.47197 2066.58407,1293.25094 2065.90256,1293.04502 L2064.16718,1298.78858 C2064.76286,1298.96856 2065.35406,1299.16176 2065.94041,1299.368 L2067.93127,1293.70792 L2067.93127,1293.70792 Z M2064.86929,1292.74551 C2064.1844,1292.55534 2063.49479,1292.38037 2062.80087,1292.22076 L2061.45592,1298.06807 C2062.06253,1298.2076 2062.66535,1298.36056 2063.26402,1298.52679 L2064.86929,1292.74551 L2064.86929,1292.74551 Z M2061.74602,1291.99066 C2061.05014,1291.84709 2060.35035,1291.71891 2059.64706,1291.60626 L2058.6981,1297.53074 C2059.31321,1297.62927 2059.92518,1297.74136 2060.53368,1297.86691 L2061.74602,1291.99066 L2061.74602,1291.99066 Z M2058.58049,1291.44771 C2057.87707,1291.35121 2057.17055,1291.2702 2056.46128,1291.20478 L2055.9102,1297.17941 C2056.53109,1297.23668 2057.14947,1297.30759 2057.76503,1297.39204 L2058.58049,1291.44771 L2058.58049,1291.44771 Z M2055.3827,1291.11747 C2054.6752,1291.06817 2053.96534,1291.03434 2053.25348,1291.01607 L2053.09954,1297.01409 C2053.72359,1297.03011 2054.34571,1297.05976 2054.96561,1297.10296 L2055.3827,1291.11747 L2055.3827,1291.11747 Z M2052.17686,1291.00032 C2052.08948,1291.00006 2052.08948,1291.00006 2052.00205,1291 C2051.34646,1291 2050.69413,1291.01308 2050.04326,1291.0392 L2050.28389,1297.03438 C2050.85457,1297.01147 2051.42667,1297 2052.00192,1297 C2052.07852,1297.00005 2052.07852,1297.00005 2052.15519,1297.00028 L2052.17686,1291.00032 L2052.17686,1291.00032 Z M2048.97995,1291.09357 C2048.26885,1291.13776 2047.56015,1291.19755 2046.85422,1291.27284 L2047.49055,1297.239 C2048.10862,1297.17308 2048.72923,1297.12072 2049.35209,1297.08202 L2048.97995,1291.09357 L2048.97995,1291.09357 Z M2045.7895,1291.39842 C2045.08247,1291.48981 2044.37859,1291.59681 2043.67827,1291.71928 L2044.7118,1297.62959 C2045.32437,1297.52247 2045.94011,1297.42887 2046.55871,1297.34891 L2045.7895,1291.39842 L2045.7895,1291.39842 Z M2042.62516,1291.91562 C2041.92686,1292.05392 2041.23249,1292.20767 2040.54247,1292.3767 L2041.97003,1298.20439 C2042.57326,1298.05663 2043.18032,1297.92221 2043.79087,1297.80129 L2042.62516,1291.91562 L2042.62516,1291.91562 Z M2039.48373,1292.64895 C2038.79673,1292.83404 2038.11449,1293.03434 2037.43742,1293.24968 L2039.25592,1298.96746 C2039.84773,1298.77924 2040.44406,1298.60416 2041.04455,1298.44238 L2039.48373,1292.64895 L2039.48373,1292.64895 Z M2036.44225,1293.57828 C2035.76864,1293.80895 2035.10063,1294.05458 2034.43863,1294.31494 L2036.63465,1299.89861 C2037.21334,1299.67102 2037.79727,1299.45631 2038.38608,1299.25468 L2036.44225,1293.57828 L2036.44225,1293.57828 Z M2033.43953,1294.72098 C2032.78321,1294.99639 2032.13333,1295.28638 2031.49031,1295.59069 L2034.05692,1301.01402 C2034.61917,1300.74793 2035.1874,1300.49438 2035.76122,1300.25358 L2033.43953,1294.72098 L2033.43953,1294.72098 Z M2030.51288,1296.06694 C2029.87685,1296.38584 2029.24809,1296.71886 2028.62706,1297.0657 L2031.55266,1302.3041 C2032.0959,1302.00071 2032.64586,1301.70943 2033.20215,1301.43051 L2030.51288,1296.06694 L2030.51288,1296.06694 Z M2027.68085,1297.60836 C2027.06774,1297.96932 2026.46276,1298.34385 2025.86634,1298.73167 L2029.1371,1303.76179 C2029.65902,1303.42242 2030.1884,1303.09468 2030.72486,1302.77885 L2027.68085,1297.60836 L2027.68085,1297.60836 Z M2025.02057,1299.29442 C2024.43286,1299.69449 2023.85409,1300.10754 2023.28468,1300.53325 L2026.87738,1305.33871 C2027.37584,1304.96605 2027.88247,1304.60448 2028.39689,1304.25431 L2025.02057,1299.29442 L2025.02057,1299.29442 Z M2022.42946,1301.18766 C2021.87002,1301.62574 2021.32032,1302.07615 2020.78078,1302.53853 L2024.68509,1307.09444 C2025.15752,1306.68957 2025.63884,1306.2952 2026.12865,1305.91164 L2022.42946,1301.18766 L2022.42946,1301.18766 Z M2019.96731,1303.25162 C2019.43785,1303.72635 2018.91893,1304.21273 2018.41095,1304.71039 L2022.60984,1308.99634 C2023.05469,1308.56053 2023.50911,1308.13459 2023.97276,1307.71887 L2019.96731,1303.25162 L2019.96731,1303.25162 Z M2016.19422,1307.03144 L2020.6686,1311.02893 C2021.08332,1310.56473 2021.50826,1310.10974 2021.94309,1309.66429 L2017.64958,1305.47313 C2017.15305,1305.98179 2016.6678,1306.50136 2016.19422,1307.03144 Z M2015.48137,1307.84759 C2015.01971,1308.38829 2014.57006,1308.93913 2014.13277,1309.49969 L2018.86358,1313.19015 C2019.24645,1312.69934 2019.64016,1312.21704 2020.04439,1311.7436 L2015.48137,1307.84759 L2015.48137,1307.84759 Z M2013.4741,1310.36396 C2013.04947,1310.93438 2012.63751,1311.51414 2012.23856,1312.10281 L2017.20542,1315.46887 C2017.55461,1314.95361 2017.91521,1314.44612 2018.28693,1313.94679 L2013.4741,1310.36396 L2013.4741,1310.36396 Z M2011.63591,1313.0142 C2011.25031,1313.61199 2010.87802,1314.2183 2010.51935,1314.83269 L2015.70097,1317.8577 C2016.0148,1317.32014 2016.34056,1316.78961 2016.67798,1316.2665 L2011.63591,1313.0142 L2011.63591,1313.0142 Z M2009.97937,1315.78231 C2009.63491,1316.40449 2009.3043,1317.03434 2008.98782,1317.67142 L2014.36131,1320.3408 C2014.6381,1319.78361 2014.92727,1319.2327 2015.22858,1318.68847 L2009.97937,1315.78231 L2009.97937,1315.78231 Z M2008.52663,1318.62622 C2008.22442,1319.27003 2007.93655,1319.92066 2007.66326,1320.57769 L2013.20312,1322.88201 C2013.44206,1322.30758 2013.69376,1321.7387 2013.958,1321.17577 L2008.52663,1318.62622 L2008.52663,1318.62622 Z M2007.29781,1321.48223 C2007.03816,1322.14434 2006.79324,1322.81246 2006.56327,1323.48615 L2012.24156,1325.42445 C2012.44258,1324.83558 2012.65667,1324.25156 2012.88364,1323.67277 L2007.29781,1321.48223 L2007.29781,1321.48223 Z M2006.22681,1324.50953 C2006.01236,1325.18754 2005.81297,1325.87071 2005.62884,1326.55862 L2011.4248,1328.11001 C2011.58575,1327.50872 2011.76003,1326.91158 2011.94747,1326.31895 L2006.22681,1324.50953 L2006.22681,1324.50953 Z M2005.36292,1327.59886 C2005.19464,1328.28944 2005.04167,1328.98434 2004.90416,1329.68318 L2010.79127,1330.8416 C2010.9115,1330.23058 2011.04524,1329.62305 2011.19235,1329.01933 L2005.36292,1327.59886 L2005.36292,1327.59886 Z M2004.7077,1330.74476 C2004.58634,1331.44454 2004.48043,1332.14784 2004.39009,1332.85428 L2010.34162,1333.61539 C2010.42066,1332.9973 2010.51332,1332.38205 2010.61946,1331.76995 L2004.7077,1330.74476 L2004.7077,1330.74476 Z M2004.26501,1333.9282 C2004.19083,1334.63401 2004.13215,1335.34256 2004.08905,1336.05351 L2010.07806,1336.41653 C2010.11581,1335.79379 2010.1672,1335.17329 2010.23215,1334.55531 L2004.26501,1333.9282 L2004.26501,1333.9282 Z M2004.03581,1337.12973 C2004.01208,1337.74834 2004.00013,1338.36849 2004,1338.98997 C2004.00012,1339.13419 2004.00012,1339.13419 2004.00074,1339.26888 L2010.00065,1339.23592 C2010.00011,1339.11832 2010.00011,1339.11832 2010,1338.99061 C2010.00011,1338.446 2010.0106,1337.9021 2010.0314,1337.35969 L2004.03581,1337.12973 L2004.03581,1337.12973 Z M2004.01826,1340.33623 C2004.03772,1341.04735 2004.07271,1341.75644 2004.12314,1342.46316 L2010.10792,1342.03608 C2010.06374,1341.41689 2010.03307,1340.79547 2010.01602,1340.17211 L2004.01826,1340.33623 L2004.01826,1340.33623 Z M2004.21097,1343.52794 C2004.27734,1344.23678 2004.3593,1344.94287 2004.45672,1345.64584 L2010.39992,1344.82221 C2010.31467,1344.20706 2010.24294,1343.58907 2010.18484,1342.96856 L2004.21097,1343.52794 L2004.21097,1343.52794 Z M2004.61612,1346.70837 C2004.72972,1347.41174 2004.85886,1348.11159 2005.00339,1348.80752 L2010.87803,1347.58745 C2010.75165,1346.97891 2010.63872,1346.3669 2010.53937,1345.75173 L2004.61612,1346.70837 L2004.61612,1346.70837 Z M2005.236,1349.86694 C2005.39672,1350.56114 2005.57281,1351.251 2005.76412,1351.93612 L2011.54305,1350.32244 C2011.37583,1349.72357 2011.22189,1349.12053 2011.0814,1348.51368 L2005.236,1349.86694 L2005.236,1349.86694 Z M2006.05887,1352.94832 C2006.26558,1353.62996 2006.48741,1354.30646 2006.72417,1354.97738 L2012.3822,1352.98072 C2012.17525,1352.39428 2011.98136,1351.80298 2011.80069,1351.20717 L2006.05887,1352.94832 L2006.05887,1352.94832 Z M2007.09354,1355.9876 C2007.3455,1356.65333 2007.61224,1357.31308 2007.89354,1357.96642 L2013.40445,1355.59369 C2013.15853,1355.02251 2012.92534,1354.44574 2012.70507,1353.86377 L2007.09354,1355.9876 L2007.09354,1355.9876 Z M2008.33311,1358.9563 C2008.62935,1359.60352 2008.93995,1360.2439 2009.26466,1360.87701 L2014.60343,1358.13885 C2014.31946,1357.58516 2014.04783,1357.02515 2013.78879,1356.45919 L2008.33311,1358.9563 L2008.33311,1358.9563 Z M2009.7724,1361.83985 C2010.11135,1362.46528 2010.46416,1363.08304 2010.83055,1363.69267 L2015.97326,1360.60195 C2015.6527,1360.06858 2015.34404,1359.52814 2015.04753,1358.98101 L2009.7724,1361.83985 L2009.7724,1361.83985 Z M2011.40483,1364.62402 C2011.78473,1365.2247 2012.17791,1365.81686 2012.58405,1366.40008 L2017.50781,1362.9713 C2017.15234,1362.46083 2016.80823,1361.94258 2016.47577,1361.41691 L2011.40483,1364.62402 L2011.40483,1364.62402 Z M2013.16948,1367.22225 C2013.58806,1367.79723 2014.01934,1368.36289 2014.46297,1368.9188 L2019.15268,1365.17626 C2018.76428,1364.68956 2018.3867,1364.19434 2018.02026,1363.69097 L2013.16948,1367.22225 L2013.16948,1367.22225 Z M2015.14168,1369.75014 C2015.59738,1370.29581 2016.06511,1370.83135 2016.54449,1371.35637 L2020.97533,1367.31068 C2020.55555,1366.85093 2020.14598,1366.38197 2019.74695,1365.90416 L2015.14168,1369.75014 L2015.14168,1369.75014 Z M2017.28101,1372.14512 C2017.77188,1372.65916 2018.27406,1373.16232 2018.78715,1373.65419 L2022.93929,1369.32293 C2022.48996,1368.89219 2022.05018,1368.45156 2021.62031,1368.0014 L2017.28101,1372.14512 L2017.28101,1372.14512 Z M2019.57741,1374.39493 C2020.10153,1374.87529 2020.63621,1375.34401 2021.18103,1375.80073 L2025.03557,1371.20262 C2024.5585,1370.8027 2024.0903,1370.39225 2023.63133,1369.97162 L2019.57741,1374.39493 L2019.57741,1374.39493 Z M2022.01995,1376.48807 C2022.57488,1376.9324 2023.13958,1377.36441 2023.71361,1377.78374 L2027.25287,1372.93879 C2026.75034,1372.57169 2026.25597,1372.19347 2025.77011,1371.80445 L2022.01995,1376.48807 L2022.01995,1376.48807 Z M2024.60061,1378.41643 C2025.18405,1378.82271 2025.77644,1379.21602 2026.37734,1379.59603 L2029.58428,1374.52498 C2029.05841,1374.19242 2028.53996,1373.8482 2028.02931,1373.49261 L2024.60061,1378.41643 L2024.60061,1378.41643 Z M2027.30745,1380.16953 C2027.9169,1380.5358 2028.53447,1380.88851 2029.15971,1381.22736 L2032.0186,1375.95226 C2031.47165,1375.65583 2030.93137,1375.34726 2030.39816,1375.02681 L2027.30745,1380.16953 L2027.30745,1380.16953 Z M2030.12785,1381.73783 C2030.76079,1382.06236 2031.40101,1382.3728 2032.04805,1382.66888 L2034.54462,1377.21295 C2033.97881,1376.95405 2033.41895,1376.68257 2032.8654,1376.39875 L2030.12785,1381.73783 L2030.12785,1381.73783 Z M2033.01499,1383.09845 C2033.66827,1383.38005 2034.32797,1383.6471 2034.99367,1383.89937 L2037.11985,1378.28872 C2036.53791,1378.0682 2035.96119,1377.83474 2035.39006,1377.58855 L2033.01499,1383.09845 L2033.01499,1383.09845 Z M2035.90414,1384.23384 C2036.57412,1384.47226 2037.24971,1384.69578 2037.93048,1384.9042 L2039.68689,1379.16703 C2039.09185,1378.98487 2038.50134,1378.7895 2037.91571,1378.5811 L2035.90414,1384.23384 L2035.90414,1384.23384 Z M2038.96128,1385.20711 C2039.6457,1385.39987 2040.33489,1385.57744 2041.02843,1385.73965 L2042.39485,1379.89731 C2041.78858,1379.75552 2041.18614,1379.6003 2040.58789,1379.4318 L2038.96128,1385.20711 L2038.96128,1385.20711 Z M2042.0802,1385.97315 C2042.77561,1386.11932 2043.47498,1386.25011 2044.17789,1386.36537 L2045.14878,1380.44444 C2044.53403,1380.34364 2043.92245,1380.22926 2043.31437,1380.10145 L2042.0802,1385.97315 L2042.0802,1385.97315 Z M2045.24653,1386.52824 C2045.94962,1386.6273 2046.65586,1386.71088 2047.36488,1386.77887 L2047.9376,1380.80627 C2047.31695,1380.74675 2046.69886,1380.6736 2046.08361,1380.58692 L2045.24653,1386.52824 L2045.24653,1386.52824 Z M2048.441,1386.86992 C2049.14838,1386.92181 2049.85816,1386.95823 2050.56999,1386.97908 L2050.74567,1380.98165 C2050.12171,1380.96338 2049.49971,1380.93146 2048.87996,1380.886 L2048.441,1386.86992 L2048.441,1386.86992 Z M2051.64883,1386.99874 C2051.76533,1386.99958 2051.88187,1387 2051.99847,1387 L2051.99865,1381 C2051.89635,1381 2051.79409,1380.99963 2051.69187,1380.99889 L2051.64883,1386.99874 L2051.64883,1386.99874 Z" id="Progress" sketch:type="MSShapeGroup"></path>
        </g>
    </g>
</svg>