<?xml version="1.0" encoding="UTF-8" standalone="no"?>
<svg width="18px" height="26px" viewBox="0 0 18 26" version="1.1" xmlns="http://www.w3.org/2000/svg" xmlns:xlink="http://www.w3.org/1999/xlink">
    <!-- Generator: Sketch 3.6.1 (26313) - http://www.bohemiancoding.com/sketch -->
    <title>svg_icon_reload_blue</title>
    <desc>Created with Sketch.</desc>
    <defs></defs>
    <g id="Styles" stroke="none" stroke-width="1" fill="none" fill-rule="evenodd">
        <g id="Buttons" transform="translate(-521.000000, -137.000000)" fill="#279CC4">
            <g id="Buttons-/-Exercise-Reload-Button" transform="translate(510.000000, 130.000000)">
                <path d="M20,10.9078807 L20,7.5 L15.4868035,12.0527157 L20,16.5788072 L20,13.1709265 C20.932556,13.1709265 21.8079138,13.3528558 22.6260997,13.7167199 C23.4442856,14.080584 24.1612872,14.568687 24.7771261,15.1810437 C25.392965,15.7934003 25.8768311,16.5122429 26.228739,17.3375932 C26.5806469,18.1629434 26.7565982,19.0459662 26.7565982,19.986688 C26.7565982,20.5724204 26.6906165,21.1315202 26.558651,21.6640043 C26.4266856,22.1964883 26.2287403,22.7023405 25.9648094,23.1815761 L27.601173,24.8322684 C28.0410579,24.1400391 28.384163,23.3856981 28.6304985,22.5692226 C28.8768341,21.7527471 29,20.8919108 29,19.986688 C29,18.7442252 28.7668645,17.5683407 28.3005865,16.4589989 C27.8343085,15.3496572 27.1920862,14.386763 26.3739003,13.5702875 C25.5557144,12.753812 24.6011785,12.1059662 23.5102639,11.6267306 C22.4193494,11.1474949 21.2492731,10.9078807 20,10.9078807 L20,10.9078807 L20,10.9078807 Z M20,26.8024494 C19.067444,26.8024494 18.1920862,26.6249574 17.3739003,26.2699681 C16.5557144,25.9149787 15.8387128,25.431313 15.2228739,24.8189563 C14.607035,24.2065997 14.1231689,23.4833198 13.771261,22.6490948 C13.4193531,21.8148698 13.2434018,20.9274097 13.2434018,19.986688 C13.2434018,19.418705 13.3093835,18.8640425 13.441349,18.3226837 C13.5733144,17.7813249 13.7712597,17.27991 14.0351906,16.8184239 L12.398827,15.1677316 C11.9589421,15.8599609 11.615837,16.6143019 11.3695015,17.4307774 C11.1231659,18.2472529 11,19.0992146 11,19.986688 C11,21.2469002 11.2331355,22.427222 11.6994135,23.527689 C12.1656915,24.628156 12.8079138,25.5910502 13.6260997,26.4164004 C14.4442856,27.2417507 15.3988215,27.8940338 16.4897361,28.3732694 C17.5806506,28.8525051 18.7507269,29.0921193 20,29.0921193 L20,32.5 L24.5131965,27.9472843 L20,23.3945687 L20,26.8024494 L20,26.8024494 Z" id="svg_icon_reload_blue"></path>
            </g>
        </g>
    </g>
</svg>