<?xml version="1.0" encoding="UTF-8" standalone="no"?>
<svg width="32px" height="33px" viewBox="0 0 32 33" version="1.1" xmlns="http://www.w3.org/2000/svg" xmlns:xlink="http://www.w3.org/1999/xlink">
    <!-- Generator: Sketch 3.6.1 (26313) - http://www.bohemiancoding.com/sketch -->
    <title>Icons/Skype</title>
    <desc>Created with Sketch.</desc>
    <defs></defs>
    <g id="Dashboard-V6" stroke="none" stroke-width="1" fill="none" fill-rule="evenodd">
        <path d="M10.4266667,3.54648039 C11.7617778,3.54648039 12.9866667,3.90467491 14.1048889,4.62638366 C14.6808889,4.48452445 15.3688889,4.4118216 16.1617778,4.4118216 C19.4435556,4.4118216 22.2382222,5.59989253 24.5475556,7.97248791 C26.8568889,10.3468565 28.0106667,13.2248254 28.0106667,16.6081677 C28.0106667,17.4344976 27.92,18.2980656 27.7404444,19.1988716 C28.2097778,20.24331 28.4444444,21.3037077 28.4444444,22.3800645 C28.4444444,24.325309 27.7688889,25.9903815 26.4142222,27.3717356 C25.0613333,28.7566362 23.4488889,29.4517464 21.5697778,29.4517464 C20.4515556,29.4517464 19.3706667,29.1644815 18.3253333,28.5864052 C17.3884444,28.7300376 16.6666667,28.8027405 16.1617778,28.8027405 C12.8782222,28.8027405 10.0728889,27.6146695 7.74755556,25.2403009 C5.42222222,22.8659323 4.25777778,19.9879635 4.25777778,16.6081677 C4.25777778,15.8155293 4.34844444,15.008705 4.528,14.1788286 C3.88088889,13.0989253 3.55555556,11.8948952 3.55555556,10.5631918 C3.55555556,8.61972058 4.224,6.96528748 5.55733333,5.59989253 C6.89066667,4.2309511 8.51555556,3.54648039 10.4266667,3.54648039 L10.4266667,3.54648039 L10.4266667,3.54648039 Z M16,22.2186996 C15.2782222,22.2186996 14.704,22.110532 14.2666667,21.8941967 C13.7991111,21.6423966 13.4755556,21.3905965 13.2942222,21.1405696 C12.8622222,20.3479312 12.6257778,19.932993 12.5902222,19.8993015 C12.4462222,19.4684041 12.2311111,19.1066631 11.9431111,18.8193982 C11.5822222,18.5711445 11.2213333,18.441698 10.8586667,18.441698 C10.3537778,18.441698 9.93955556,18.6030629 9.61422222,18.9275658 C9.28888889,19.2502955 9.12711111,19.6297689 9.12711111,20.0606663 C9.12711111,20.745137 9.38311111,21.4810317 9.888,22.2736701 C10.3555556,22.9918323 11.0062222,23.5876411 11.8364444,24.05223 C12.9884444,24.6657711 14.4142222,24.9725416 16.1102222,24.9725416 C17.5146667,24.9725416 18.7591111,24.7562063 19.8435556,24.325309 C20.9262222,23.8217088 21.7191111,23.1922085 22.224,22.4368082 C22.7644444,21.608705 23.0346667,20.707899 23.0346667,19.7379366 C23.0346667,18.9488447 22.8924444,18.2271359 22.6044444,17.5799033 C22.3146667,17.0408383 21.8648889,16.5549704 21.2497778,16.1258463 C20.6008889,15.7268673 19.9164444,15.4041376 19.1946667,15.1541107 C17.9697778,14.7923697 17.1004444,14.558302 16.5973333,14.4519076 C16.3431111,14.4146695 16.0284444,14.3543794 15.6497778,14.2621709 C15.2711111,14.1735089 15.0275556,14.1114455 14.9208889,14.0742074 C14.4888889,13.9323482 14.1813333,13.8046749 14,13.6982805 C13.7102222,13.554648 13.4773333,13.3560451 13.296,13.1024718 C13.1128889,12.9251478 13.0257778,12.6893068 13.0257778,12.4002687 C13.0257778,11.9693713 13.2782222,11.5934444 13.7831111,11.2671682 C14.2542222,10.9072004 14.9368889,10.7263299 15.8382222,10.7263299 C16.7413333,10.7263299 17.4097778,10.889468 17.8417778,11.2104245 C18.3093333,11.6094035 18.6524444,12.0580333 18.8675556,12.5616335 C19.1573333,13.0297689 19.392,13.3524987 19.5715556,13.5315959 C19.8595556,13.7497045 20.2026667,13.8578721 20.5991111,13.8578721 C21.0684444,13.8578721 21.4844444,13.6770016 21.8417778,13.3152606 C22.1688889,12.9943041 22.3306667,12.5988716 22.3306667,12.1289629 C22.3306667,11.7707684 22.2026667,11.3008598 21.9502222,10.7263299 C21.6622222,10.2954326 21.2817778,9.8645352 20.8142222,9.43363783 C20.3093333,9.03643203 19.6426667,8.69419667 18.8106667,8.40693176 C17.9484444,8.15335841 17.0257778,8.0292316 16.0515556,8.0292316 C14.7537778,8.0292316 13.5982222,8.22428802 12.5884444,8.62326706 C11.5822222,8.9779151 10.8053333,9.51875336 10.2648889,10.2386889 C9.72266667,10.9586244 9.45244444,11.7849543 9.45244444,12.7212251 C9.45244444,13.6557227 9.70666667,14.4660935 10.2097778,15.1505642 C10.8248889,15.8687265 11.5075556,16.3705535 12.2648889,16.6595916 C13.1324444,17.0567974 14.1777778,17.3813004 15.4044444,17.6313272 C15.6195556,17.6685653 15.8844444,17.7306287 16.1884444,17.8192907 C16.4942222,17.9114992 16.7644444,17.9824288 17.0008889,18.0373992 C17.2337778,18.08705 17.424,18.1349275 17.568,18.1703923 C18.0728889,18.353036 18.4871111,18.6012896 18.8106667,18.9275658 C19.136,19.1775927 19.2977778,19.5552929 19.2977778,20.0606663 C19.2977778,20.6742074 19.0097778,21.1760344 18.4337778,21.5732402 C17.7866667,22.0041376 16.9742222,22.2186996 16,22.2186996 L16,22.2186996 L16,22.2186996 Z M10.4266667,0 C7.56622222,0 4.99911111,1.08167652 3.00622222,3.12976894 C1.04177778,5.14062332 0,7.71359484 0,10.5631918 C0,12.0385277 0.277333333,13.4340677 0.828444444,14.7267598 C0.744888889,15.3598066 0.704,15.9910801 0.704,16.6099409 C0.704,20.9331005 2.22044444,24.6728641 5.20533333,27.7228372 C8.21511111,30.7940892 11.904,32.3509941 16.1635556,32.3509941 C16.6151111,32.3509941 17.136,32.3155293 17.7564444,32.2445997 C18.9831111,32.7464267 20.2613333,33 21.5715556,33 C24.3946667,33 26.9493333,31.9112305 28.9617778,29.8489522 C30.9475556,27.8221386 32,25.2385277 32,22.3818377 C32,21.1813541 31.8026667,19.9897367 31.4097778,18.8282644 C31.5146667,18.0710908 31.568,17.3281032 31.568,16.6099409 C31.568,12.2885545 30.064,8.55233745 27.1004444,5.50413756 C24.1048889,2.42756582 20.4248889,0.867114455 16.1635556,0.867114455 C15.6675556,0.867114455 15.1928889,0.890166577 14.7395556,0.934497582 C13.3955556,0.313863514 11.952,0 10.4266667,0 L10.4266667,0 L10.4266667,0 Z" id="Icons/Skype" fill="#000000"></path>
    </g>
</svg>