<svg xmlns="http://www.w3.org/2000/svg" preserveAspectRatio="xMidYMid" width="128.12" height="223.76" viewBox="0 0 12.812 22.376"><path d="M8.242 1.898c-2.175 0-4.315 1.524-4.315 5.258 0 3.584 2.282 5.017 4.635 5.017h1.499v-10.275h-1.819zm.107-1.91h4.064c.25 0 .393.089.393.299v21.863c0 .148-.072.238-.286.238h-2.21c-.142 0-.249-.119-.249-.209v-8.094h-1.784l-4.956 8.094c-.071.149-.214.209-.428.209h-2.531c-.284 0-.463-.209-.285-.478l5.454-8.243c-2.922-1.076-4.563-3.256-4.563-6.213 0-4.928 3.388-7.466 7.38-7.466h.001z" class="cls-1"/></svg>