<?xml version="1.0" encoding="UTF-8" standalone="no"?>
<svg width="24px" height="24px" viewBox="0 0 24 24" version="1.1" xmlns="http://www.w3.org/2000/svg" xmlns:xlink="http://www.w3.org/1999/xlink">
    <!-- Generator: Sketch 3.6.1 (26313) - http://www.bohemiancoding.com/sketch -->
    <title>Icons/Progress</title>
    <desc>Created with Sketch.</desc>
    <defs></defs>
    <g id="Progress-V2" stroke="none" stroke-width="1" fill="none" fill-rule="evenodd">
        <g id="Assets" transform="translate(-580.000000, -489.000000)" fill="#000000">
            <path d="M580.4375,495.25 C580.145832,495.125 580,494.968752 580,494.781248 C580,494.593748 580.145832,494.4375 580.4375,494.3125 L591,489.1875 C591.25,489.0625 591.583332,489 592,489 C592.416668,489 592.75,489.0625 593,489.1875 L603.5625,494.3125 C603.854168,494.4375 604,494.593748 604,494.781248 C604,494.968752 603.854168,495.125 603.5625,495.25 L593,500.375 C592.75,500.5 592.416668,500.5625 592,500.5625 C591.583332,500.5625 591.25,500.5 591,500.375 L580.4375,495.25 Z M603.5625,500.5 C603.854168,500.625 604,500.791664 604,501 C604,501.208336 603.854168,501.375 603.5625,501.5 L593,506.5625 C592.666664,506.729168 592.333336,506.8125 592,506.8125 C591.666664,506.8125 591.333336,506.729168 591,506.5625 L580.4375,501.5 C580.145832,501.375 580,501.208336 580,501 C580,500.791664 580.145832,500.625 580.4375,500.5 C581.562506,499.958332 582.249999,499.625 582.5,499.5 C582.750001,499.333332 583.020832,499.333332 583.3125,499.5 L591,503.25 C591.25,503.375 591.583332,503.4375 592,503.4375 C592.416668,503.4375 592.75,503.375 593,503.25 C598.041692,500.791656 600.645832,499.520832 600.8125,499.4375 C601.020836,499.354168 601.208332,499.354168 601.375,499.4375 L603.5625,500.5 Z M603.5625,506.75 C603.854168,506.875 604,507.031248 604,507.218752 C604,507.406252 603.854168,507.5625 603.5625,507.6875 L593,512.8125 C592.75,512.937501 592.416668,513 592,513 C591.583332,513 591.25,512.937501 591,512.8125 L580.4375,507.6875 C580.145832,507.5625 580,507.406252 580,507.218752 C580,507.031248 580.145832,506.875 580.4375,506.75 C581.562506,506.166664 582.249999,505.8125 582.5,505.6875 C582.708334,505.5625 582.979165,505.583332 583.3125,505.75 L591,509.4375 C591.25,509.562501 591.583332,509.625 592,509.625 C592.416668,509.625 592.75,509.562501 593,509.4375 C598.041692,507.02082 600.645832,505.770832 600.8125,505.6875 C601.020836,505.604168 601.208332,505.604168 601.375,505.6875 L603.5625,506.75 Z" id="Icons/Progress"></path>
        </g>
    </g>
</svg>