<?xml version="1.0" encoding="UTF-8" standalone="no"?>
<svg width="25px" height="32px" viewBox="0 0 25 32" version="1.1" xmlns="http://www.w3.org/2000/svg" xmlns:xlink="http://www.w3.org/1999/xlink">
    <!-- Generator: Sketch 3.6.1 (26313) - http://www.bohemiancoding.com/sketch -->
    <title>icons / svg_badge_grammar</title>
    <desc>Created with Sketch.</desc>
    <defs></defs>
    <g id="User-Progress" stroke="none" stroke-width="1" fill="none" fill-rule="evenodd">
        <g id="Artboard-2" transform="translate(-156.000000, -148.000000)" fill="#47B347">
            <g id="icons-/-svg_badge_grammar" transform="translate(156.000000, 148.000000)">
                <path d="M23.3333333,0 L25,0 L25,32 L12.5,27.8390093 L0,32 L0,0 L1.66666667,0 L1.66666667,29.7913786 L12.5,26.1647066 L23.3333333,29.7913786 L23.3333333,0 L23.3333333,0 Z M17.4721448,10.1710434 C17.3421541,7.93333086 15.7451253,5.89473684 12.6903435,5.89473684 C9.53342618,5.89473684 7.5,8.07555835 7.5,11.7260639 L7.5,13.4612393 C7.5,17.0074447 9.17130919,19.3684211 12.6346332,19.3684211 C16.2929434,19.3684211 17.5,16.7324716 17.5,14.9214415 L17.5,12.2854921 L12.597493,12.2854921 L12.597493,13.8784399 L15.6522748,13.8784399 L15.6522748,14.9878144 C15.6522748,16.5333531 14.417363,17.671173 12.6346332,17.671173 C10.4712163,17.671173 9.41272052,16.030816 9.41272052,13.4612393 L9.41272052,11.7355458 C9.41272052,8.82462313 10.8704735,7.60146672 12.6532033,7.60146672 C14.1202414,7.60146672 15.3830084,8.41690433 15.5872795,10.1710434 L17.4721448,10.1710434 L17.4721448,10.1710434 Z" id="svg_badge_grammar"></path>
            </g>
        </g>
    </g>
</svg>