<?xml version="1.0" encoding="UTF-8" standalone="no"?>
<svg width="25px" height="32px" viewBox="0 0 25 32" version="1.1" xmlns="http://www.w3.org/2000/svg" xmlns:xlink="http://www.w3.org/1999/xlink">
    <!-- Generator: Sketch 3.6.1 (26313) - http://www.bohemiancoding.com/sketch -->
    <title>icons / svg_badge_pronunciation</title>
    <desc>Created with Sketch.</desc>
    <defs></defs>
    <g id="User-Progress" stroke="none" stroke-width="1" fill="none" fill-rule="evenodd">
        <g id="Artboard-2" transform="translate(-156.000000, -508.000000)" fill="#47B347">
            <g id="icons-/-svg_badge_pronunciation" transform="translate(156.000000, 508.000000)">
                <path d="M23.3333333,0 L25,0 L25,32 L12.5,27.8390093 L0,32 L0,0 L1.66666667,0 L1.66666667,29.7913786 L12.5,26.1647066 L23.3333333,29.7913786 L23.3333333,0 L23.3333333,0 Z M19.1666667,15.5814396 L19.1666667,12.6355696 C19.1666667,8.91254202 16.1818983,5.89473684 12.5,5.89473684 C8.82559359,5.89473684 5.83333333,8.91271049 5.83333333,12.6355696 L5.83333333,15.5814396 L5.83333333,18.5213313 C5.83333333,19.4639538 6.57730933,20.2105263 7.49505023,20.2105263 L10,20.2105263 L10,13.4736842 L7.5,13.4736842 L7.5,12.6263068 C7.5,9.83872717 9.74419519,7.57894737 12.5,7.57894737 C15.2614237,7.57894737 17.5,9.84823736 17.5,12.6263068 L17.5,13.4736842 L15,13.4736842 L15,20.2105263 L17.5049498,20.2105263 C18.4212385,20.2105263 19.1666667,19.454248 19.1666667,18.5213313 L19.1666667,15.5814396 L19.1666667,15.5814396 Z" id="svg_badge_pronunciation"></path>
            </g>
        </g>
    </g>
</svg>