<?xml version="1.0" encoding="UTF-8" standalone="no"?>
<svg width="25px" height="32px" viewBox="0 0 25 32" version="1.1" xmlns="http://www.w3.org/2000/svg" xmlns:xlink="http://www.w3.org/1999/xlink">
    <!-- Generator: Sketch 3.6.1 (26313) - http://www.bohemiancoding.com/sketch -->
    <title>icons / svg_badge_reading</title>
    <desc>Created with Sketch.</desc>
    <defs></defs>
    <g id="User-Progress" stroke="none" stroke-width="1" fill="none" fill-rule="evenodd">
        <g id="Artboard-2" transform="translate(-156.000000, -328.000000)" fill="#47B347">
            <g id="icons-/-svg_badge_reading" transform="translate(156.000000, 328.000000)">
                <path d="M12.5,7.37913197 C12.0583479,6.97956444 11.4752196,6.73684211 10.8355069,6.73684211 L5.83333333,6.73684211 L5,6.73684211 L5,7.57894737 L5,18.5263158 L5,19.3684211 L5.83333333,19.3684211 L10.8355069,19.3684211 C11.2951414,19.3684211 11.6666667,19.7444606 11.6666667,20.2128506 L12.5,20.2128506 L13.3333333,20.2128506 C13.3333333,19.7444606 13.7048586,19.3684211 14.1644931,19.3684211 L19.1666667,19.3684211 L20,19.3684211 L20,18.5263158 L20,7.57894737 L20,6.73684211 L19.1666667,6.73684211 L14.1644931,6.73684211 C13.5247804,6.73684211 12.9416521,6.97956444 12.5,7.37913197 Z M23.3333333,0 L25,0 L25,32 L12.5,27.8390093 L0,32 L0,0 L1.66666667,0 L1.66666667,29.7913786 L12.5,26.1647066 L23.3333333,29.7913786 L23.3333333,-1.11022302e-16 Z M11.6666667,17.8357833 C11.3997918,17.7374456 11.1362023,17.6842105 10.8355069,17.6842105 L6.66666667,17.6842105 L6.66666667,8.42105263 L10.8355069,8.42105263 C11.2951414,8.42105263 11.6666667,8.79709218 11.6666667,9.26548221 L11.6666667,17.8357833 Z M13.3333333,17.8357833 C13.6002082,17.7374456 13.8637977,17.6842105 14.1644931,17.6842105 L18.3333333,17.6842105 L18.3333333,8.42105263 L14.1644931,8.42105263 C13.7048586,8.42105263 13.3333333,8.79709218 13.3333333,9.26548221 L13.3333333,17.8357833 Z" id="svg_badge_reading"></path>
            </g>
        </g>
    </g>
</svg>