<?xml version="1.0" encoding="UTF-8" standalone="no"?>
<svg width="25px" height="32px" viewBox="0 0 25 32" version="1.1" xmlns="http://www.w3.org/2000/svg" xmlns:xlink="http://www.w3.org/1999/xlink">
    <!-- Generator: Sketch 3.6.1 (26313) - http://www.bohemiancoding.com/sketch -->
    <title>icons / svg_badge_speaking</title>
    <desc>Created with Sketch.</desc>
    <defs></defs>
    <g id="User-Progress" stroke="none" stroke-width="1" fill="none" fill-rule="evenodd">
        <g id="Artboard-2" transform="translate(-156.000000, -448.000000)" fill="#47B347">
            <g id="icons-/-svg_badge_speaking" transform="translate(156.000000, 448.000000)">
                <path d="M23.3333333,0 L25,0 L25,32 L12.5,27.8390093 L0,32 L0,0 L1.66666667,0 L1.66666667,29.7913786 L12.5,26.1647066 L23.3333333,29.7913786 L23.3333333,0 L23.3333333,0 Z M12.5100057,16.8461441 C11.5894747,16.8461441 10.8023674,16.516307 10.1486564,15.85662 C9.49494533,15.196933 9.16809605,14.4026303 9.16809605,13.4736842 L9.16809605,8.42509151 C9.16809605,7.4961454 9.49494533,6.70184274 10.1486564,6.04215575 C10.8023674,5.38246876 11.5894747,5.05263158 12.5100057,5.05263158 C13.4305367,5.05263158 14.2143096,5.38246876 14.8613493,6.04215575 C15.5083891,6.70184274 15.8319039,7.4961454 15.8319039,8.42509151 L15.8319039,13.4736842 C15.8319039,14.4026303 15.5083891,15.196933 14.8613493,15.85662 C14.2143096,16.516307 13.4305367,16.8461441 12.5100057,16.8461441 L12.5100057,16.8461441 Z M12.5100057,6.74895873 C12.0430689,6.74895873 11.6461796,6.91387858 11.3193253,7.24372081 C10.9924711,7.57356304 10.8290452,7.96735075 10.8290452,8.42509151 L10.8290452,13.4736842 C10.8290452,13.931425 10.9924711,14.3252127 11.3193253,14.6550549 C11.6461796,14.9848971 12.0430689,15.149817 12.5100057,15.149817 C12.9635999,15.149817 13.3538204,14.9848971 13.6806747,14.6550549 C14.0075289,14.3252127 14.1709548,13.931425 14.1709548,13.4736842 L14.1709548,8.42509151 C14.1709548,7.96735075 14.0075289,7.57356304 13.6806747,7.24372081 C13.3538204,6.91387858 12.9635999,6.74895873 12.5100057,6.74895873 L12.5100057,6.74895873 Z M16.6666667,13.4736842 L18.3333333,13.4736842 L18.3333333,13.4778699 C18.3333333,16.4449182 16.1555299,18.89961 13.3333333,19.3085595 L13.3333333,20.2105263 L16.6666667,20.2105263 L16.6666667,21.8947368 L8.33333333,21.8947368 L8.33333333,20.2105263 L11.6666667,20.2105263 L11.6666667,19.3088881 C8.83975488,18.9013582 6.66666667,16.4506309 6.66666667,13.4778699 L6.66666667,13.4736842 L8.33333333,13.4736842 L8.33333333,13.4764751 C8.33333333,15.7965654 10.1988135,17.6842105 12.5,17.6842105 C14.796504,17.6842105 16.6666667,15.8003432 16.6666667,13.4764751 L16.6666667,13.4736842 L16.6666667,13.4736842 Z" id="svg_badge_speaking"></path>
            </g>
        </g>
    </g>
</svg>