<?xml version="1.0" encoding="UTF-8" standalone="no"?>
<svg width="25px" height="32px" viewBox="0 0 25 32" version="1.1" xmlns="http://www.w3.org/2000/svg" xmlns:xlink="http://www.w3.org/1999/xlink">
    <!-- Generator: Sketch 3.6.1 (26313) - http://www.bohemiancoding.com/sketch -->
    <title>icons / svg_badge_video</title>
    <desc>Created with Sketch.</desc>
    <defs></defs>
    <g id="User-Progress" stroke="none" stroke-width="1" fill="none" fill-rule="evenodd">
        <g id="Artboard-2" transform="translate(-156.000000, -208.000000)" fill="#47B347">
            <g id="icons-/-svg_badge_video" transform="translate(156.000000, 208.000000)">
                <path d="M23.3333333,0 L25,0 L25,32 L12.5,27.8390093 L0,32 L0,0 L1.66666667,0 L1.66666667,29.7913786 L12.5,26.1647066 L23.3333333,29.7913786 L23.3333333,0 L23.3333333,0 L23.3333333,0 Z M4.16666667,6.73684211 L20.8333333,6.73684211 L20.8333333,20.2105263 L4.16666667,20.2105263 L4.16666667,6.73684211 L4.16666667,6.73684211 L4.16666667,6.73684211 Z M5.83333333,8.42105263 L19.1666667,8.42105263 L19.1666667,18.5263158 L5.83333333,18.5263158 L5.83333333,8.42105263 L5.83333333,8.42105263 L5.83333333,8.42105263 Z M15.4166667,13.4736842 L10.4166667,16.4210526 L10.4166667,10.5263158 L15.4166667,13.4736842 L15.4166667,13.4736842 L15.4166667,13.4736842 Z" id="svg_badge_video"></path>
            </g>
        </g>
    </g>
</svg>