<?xml version="1.0" encoding="UTF-8" standalone="no"?>
<svg width="25px" height="33px" viewBox="0 0 25 33" version="1.1" xmlns="http://www.w3.org/2000/svg" xmlns:xlink="http://www.w3.org/1999/xlink">
    <!-- Generator: Sketch 3.6.1 (26313) - http://www.bohemiancoding.com/sketch -->
    <title>icons / svg_badge_writing</title>
    <desc>Created with Sketch.</desc>
    <defs></defs>
    <g id="User-Progress" stroke="none" stroke-width="1" fill="none" fill-rule="evenodd">
        <g id="Artboard-2" transform="translate(-156.000000, -387.000000)" fill="#47B347">
            <g id="icons-/-svg_badge_writing" transform="translate(156.000000, 387.000000)">
                <path d="M23.3333333,0 L25,0 L25,33 L12.5,28.8190045 L0,33 L0,0 L1.66666667,0 L1.66666667,30.7807603 L12.5,27.1366523 L23.3333333,30.7807603 L23.3333333,3.88578059e-16 Z M9.21583088,19.9956887 L5.83333333,21.1538462 L6.97394297,17.7193102 L13.4242871,11.1297935 L15.7055064,13.4461085 L9.21583088,19.9956887 Z M17.0034415,12.0882687 L14.7615536,9.81189017 L16.413471,8.09462219 C16.7281244,7.77512792 17.1083235,7.61538462 17.5540806,7.61538462 C17.9998378,7.61538462 18.3800368,7.77512792 18.6946903,8.09462219 C19.0093437,8.41411647 19.1666667,8.8001647 19.1666667,9.25277967 C19.1666667,9.70539464 19.0093437,10.0914429 18.6946903,10.4109371 L17.0034415,12.0882687 Z" id="svg_badge_writing"></path>
            </g>
        </g>
    </g>
</svg>